<?xml version="1.0" standalone="no"?>
<!DOCTYPE svg PUBLIC "-//W3C//DTD SVG 20010904//EN"
 "http://www.w3.org/TR/2001/REC-SVG-20010904/DTD/svg10.dtd">
<svg version="1.0" xmlns="http://www.w3.org/2000/svg"
 width="700.000000pt" height="700.000000pt" viewBox="0 0 700.000000 700.000000"
 preserveAspectRatio="xMidYMid meet">
<metadata>
Created by potrace 1.14, written by Peter Selinger 2001-2017
</metadata>
<g transform="translate(0.000000,700.000000) scale(0.100000,-0.100000)"
fill="#000000" stroke="none">
<path d="M2963 6435 c-16 -11 -22 -12 -26 -2 -3 9 -7 9 -20 -2 -10 -7 -17 -10
-17 -6 0 4 -6 2 -13 -4 -8 -6 -17 -8 -21 -4 -4 4 -11 1 -16 -7 -9 -13 -10 -13
-10 0 -1 8 -6 4 -11 -10 -8 -20 -12 -22 -19 -10 -7 11 -10 12 -10 2 0 -7 -4
-10 -10 -7 -5 3 -10 1 -10 -5 0 -6 -4 -8 -10 -5 -5 3 -10 1 -10 -4 0 -6 -9
-11 -20 -11 -11 0 -20 -5 -20 -11 0 -6 -7 -8 -16 -5 -8 3 -12 2 -9 -4 3 -6 -2
-13 -12 -17 -24 -9 -33 -17 -116 -98 -40 -38 -71 -74 -69 -78 1 -5 -2 -6 -7
-3 -12 8 -81 -62 -81 -80 0 -8 -6 -11 -15 -8 -8 4 -15 1 -15 -6 0 -6 -4 -8
-10 -5 -5 3 -10 1 -10 -5 0 -6 -4 -8 -10 -5 -5 3 -10 1 -10 -4 0 -6 -5 -11
-11 -11 -5 0 -7 6 -4 13 4 6 0 4 -8 -5 -8 -10 -17 -15 -20 -12 -3 4 -25 -1
-48 -10 -35 -14 -40 -14 -30 -3 10 13 6 14 -31 5 -24 -6 -65 -11 -91 -13 -29
-1 -52 -7 -58 -16 -7 -12 -9 -12 -9 1 0 13 -1 13 -10 0 -8 -13 -11 -13 -19 -1
-7 11 -11 10 -20 -5 -8 -15 -11 -15 -11 -4 -1 8 -6 4 -11 -10 -8 -20 -12 -22
-19 -10 -7 11 -10 12 -10 2 0 -7 -4 -10 -10 -7 -5 3 -10 1 -10 -5 0 -6 -4 -9
-9 -5 -5 3 -16 -2 -24 -10 -9 -8 -20 -15 -26 -15 -6 0 -11 -5 -11 -11 0 -6 -6
-9 -13 -6 -8 3 -18 -7 -26 -24 -8 -18 -17 -26 -27 -22 -20 7 -56 -26 -49 -47
4 -11 -3 -21 -20 -28 -15 -7 -23 -17 -20 -22 3 -6 -1 -13 -9 -16 -9 -3 -13
-10 -10 -15 3 -5 0 -9 -5 -9 -6 0 -11 -8 -11 -19 0 -10 -7 -24 -15 -31 -8 -7
-12 -16 -9 -21 3 -5 1 -9 -5 -9 -6 0 -8 -7 -5 -15 4 -8 1 -15 -6 -15 -6 0 -9
-4 -5 -9 3 -5 1 -12 -5 -16 -6 -4 -8 -11 -4 -16 3 -5 0 -17 -8 -26 -10 -13
-10 -17 -1 -20 10 -4 10 -10 2 -25 -11 -20 -16 -43 -23 -98 -2 -14 -5 -27 -6
-30 -1 -3 -2 -9 -1 -14 1 -4 -4 -15 -11 -24 -11 -13 -11 -15 2 -8 8 4 4 -2
-10 -14 -14 -12 -19 -19 -12 -15 13 7 16 -4 6 -29 -3 -9 -13 -16 -21 -16 -8 0
-11 -5 -8 -10 3 -6 -4 -14 -17 -19 -13 -6 -17 -10 -10 -10 13 -1 -49 -71 -63
-71 -11 0 -129 -123 -127 -132 1 -4 -6 -4 -15 -1 -12 5 -14 3 -8 -7 5 -8 -1
-20 -16 -32 -13 -11 -17 -17 -9 -13 8 4 4 -3 -9 -14 -13 -12 -19 -21 -15 -21
5 0 -4 -11 -20 -25 -16 -14 -24 -25 -17 -25 9 0 9 -4 -1 -15 -30 -33 -35 -42
-32 -58 1 -9 -3 -17 -9 -17 -5 0 -7 -3 -4 -7 4 -3 2 -12 -4 -20 -9 -10 -8 -13
2 -13 10 -1 9 -4 -3 -11 -10 -5 -15 -16 -11 -25 3 -9 0 -20 -7 -24 -18 -11
-25 -250 -7 -250 9 0 8 -3 -2 -9 -9 -6 -11 -18 -6 -42 7 -30 10 -107 5 -126
-1 -5 -3 -12 -5 -18 -1 -5 -3 -13 -5 -17 -1 -5 -3 -11 -4 -15 -7 -30 -19 -53
-27 -53 -6 0 -8 -4 -4 -9 3 -6 -3 -14 -12 -20 -10 -5 -15 -13 -10 -17 4 -4 -7
-16 -24 -26 -18 -11 -29 -24 -26 -32 4 -9 -6 -19 -24 -26 -25 -11 -27 -15 -17
-28 8 -10 8 -13 2 -9 -13 8 -37 -16 -27 -26 3 -4 1 -7 -6 -7 -7 0 -10 -4 -6
-9 3 -6 -1 -13 -8 -18 -20 -11 -41 -53 -27 -53 6 0 1 -10 -10 -22 -12 -14 -16
-24 -10 -26 6 -2 3 -10 -7 -18 -13 -10 -14 -13 -4 -14 11 0 10 -4 -3 -19 -12
-13 -14 -20 -5 -23 8 -3 7 -8 -4 -19 -8 -9 -14 -29 -12 -47 1 -18 -1 -35 -6
-38 -14 -8 -10 -101 5 -139 10 -22 11 -35 4 -35 -6 0 -7 -8 -3 -17 4 -10 8
-31 11 -47 2 -15 8 -34 15 -42 6 -7 8 -18 4 -24 -3 -5 1 -13 10 -16 13 -6 14
-8 3 -15 -9 -6 -10 -9 -1 -9 7 0 10 -6 7 -14 -3 -8 -1 -17 5 -21 15 -9 14 -28
-1 -19 -7 4 -5 -2 5 -13 13 -14 15 -23 7 -28 -7 -4 -8 -11 -1 -18 13 -16 7
-148 -9 -176 -8 -15 -8 -21 -1 -17 6 4 11 0 11 -8 0 -9 -5 -16 -11 -16 -6 0
-9 -6 -6 -13 3 -8 1 -20 -3 -28 -5 -8 -5 -16 1 -20 7 -4 3 -13 -8 -24 -12 -13
-14 -20 -6 -22 9 -3 8 -11 -4 -30 -14 -21 -14 -26 -2 -34 9 -5 10 -9 2 -9 -6
0 -10 -9 -8 -20 2 -11 0 -22 -6 -25 -12 -8 -12 -132 0 -140 6 -3 8 -14 6 -25
-2 -11 2 -20 8 -20 9 0 8 -3 -1 -8 -9 -7 -10 -15 -3 -35 6 -15 8 -27 4 -27 -3
0 2 -9 12 -20 13 -15 14 -20 5 -20 -10 0 -11 -3 -3 -11 6 -6 9 -18 6 -25 -3
-8 -1 -14 5 -14 6 0 9 -11 8 -24 -2 -14 3 -27 11 -30 8 -3 12 -10 9 -15 -4 -5
1 -16 9 -25 9 -9 18 -26 20 -38 3 -13 9 -24 15 -26 5 -2 10 -10 10 -18 0 -8 5
-14 11 -14 5 0 8 -4 5 -9 -3 -5 1 -12 10 -15 8 -3 12 -10 9 -16 -3 -6 1 -13 9
-16 9 -3 16 -12 16 -19 0 -7 15 -23 34 -36 19 -13 32 -29 29 -36 -8 -20 16
-43 43 -43 13 0 24 -4 24 -8 0 -12 88 -101 94 -95 2 3 7 -5 11 -16 3 -12 10
-21 15 -21 5 0 7 -6 4 -14 -3 -7 2 -16 10 -19 8 -3 20 -16 26 -28 8 -14 8 -19
1 -15 -7 5 -9 1 -5 -8 3 -9 11 -13 17 -9 6 4 8 0 4 -10 -3 -9 -2 -19 4 -22 5
-4 7 -10 4 -15 -3 -4 2 -11 11 -14 8 -3 12 -11 9 -16 -4 -6 -2 -17 4 -24 6 -7
9 -22 6 -34 -2 -12 0 -22 6 -22 5 0 9 -6 9 -14 0 -8 8 -17 17 -20 15 -6 15 -8
3 -16 -13 -9 -13 -10 0 -10 12 0 12 -2 2 -9 -10 -6 -8 -10 10 -15 17 -4 20 -8
10 -15 -11 -6 -10 -11 3 -25 9 -9 12 -16 5 -16 -7 0 -5 -7 4 -16 9 -8 14 -20
11 -25 -4 -5 1 -9 10 -9 9 0 14 -4 10 -9 -3 -5 2 -16 11 -25 8 -9 12 -20 9
-26 -3 -5 3 -10 14 -10 13 0 19 -5 15 -14 -3 -7 2 -16 11 -20 9 -3 13 -10 10
-16 -3 -5 5 -15 19 -22 22 -9 24 -14 13 -26 -10 -13 -9 -15 6 -9 10 4 16 3 13
-1 -3 -5 18 -31 46 -58 28 -27 47 -42 43 -34 -4 8 4 2 18 -13 16 -18 31 -26
39 -21 7 4 10 4 6 -1 -10 -10 11 -37 23 -29 5 3 9 0 9 -6 0 -6 5 -8 10 -5 6 3
13 -1 16 -9 3 -9 10 -13 15 -10 5 3 9 -3 9 -12 0 -10 3 -15 6 -11 4 3 19 0 34
-8 15 -8 30 -11 34 -8 3 4 6 0 6 -8 0 -12 2 -11 10 1 8 12 11 11 16 -8 5 -18
9 -20 15 -10 6 9 9 10 9 1 0 -7 7 -10 15 -7 8 4 15 1 15 -6 0 -7 7 -10 17 -6
9 4 20 1 25 -6 6 -10 8 -10 8 1 0 11 5 10 20 -4 11 -10 20 -15 20 -12 0 4 12
2 27 -4 20 -7 28 -6 35 3 5 9 8 9 8 1 0 -6 8 -10 18 -8 9 1 22 -1 28 -6 6 -5
46 -6 90 -4 121 8 137 11 163 24 14 8 21 9 17 2 -4 -6 -3 -11 3 -11 5 0 12 4
15 9 3 5 15 11 26 14 12 3 18 1 14 -5 -4 -7 2 -7 17 -3 31 10 179 12 185 3 2
-4 19 -6 36 -6 18 1 34 -4 36 -10 2 -7 8 -10 13 -6 5 3 9 1 9 -3 0 -5 9 -9 21
-10 11 -1 28 -10 37 -21 10 -10 25 -18 35 -16 9 1 17 -3 17 -9 0 -7 4 -6 10 3
8 12 10 12 16 -3 3 -9 17 -17 30 -17 16 0 24 -6 25 -17 0 -12 2 -13 6 -5 4 10
8 9 19 -5 9 -13 13 -14 14 -4 0 11 3 11 15 1 8 -7 15 -9 15 -5 0 4 6 3 13 -2
22 -18 67 -25 67 -11 0 9 3 9 10 -2 7 -11 28 -14 90 -12 53 2 80 -1 75 -7 -3
-6 13 -5 39 3 33 10 48 11 57 2 6 -6 9 -6 6 -1 -3 6 27 10 83 10 56 0 86 -4
83 -10 -3 -5 0 -5 6 1 9 9 24 8 57 -2 26 -8 42 -9 39 -3 -5 6 22 9 75 7 62 -2
83 1 90 12 7 11 10 11 10 2 0 -14 45 -7 68 11 6 5 12 6 12 2 0 -4 7 -2 15 5
12 10 15 10 15 -1 1 -10 5 -9 14 4 11 14 15 15 19 5 4 -8 6 -7 6 5 1 11 9 17
25 17 13 0 27 8 30 17 6 15 8 15 16 3 7 -11 10 -12 10 -2 0 7 4 11 9 8 5 -4
12 0 14 6 4 10 6 9 6 -1 1 -10 7 -7 20 8 11 12 29 23 40 24 12 1 21 5 21 10 0
4 4 6 9 3 5 -4 11 -1 13 6 2 6 18 11 36 10 17 0 34 2 36 6 6 9 154 7 185 -3
15 -4 21 -4 17 3 -4 6 2 8 14 5 11 -3 23 -9 26 -14 3 -5 10 -9 15 -9 6 0 7 5
3 11 -4 7 3 6 17 -2 13 -7 38 -14 54 -15 151 -14 186 -16 197 -7 7 6 21 9 31
8 9 -2 17 2 17 8 0 8 3 8 8 -1 7 -9 15 -10 35 -3 15 6 27 8 27 4 0 -3 9 2 20
12 15 13 20 14 20 5 0 -10 3 -11 11 -3 6 6 18 9 25 6 8 -3 14 0 14 7 0 7 7 10
15 6 8 -3 15 0 15 7 0 9 3 8 9 -1 6 -10 10 -8 15 10 5 19 8 20 16 8 8 -12 10
-13 10 -1 0 8 3 12 6 8 4 -3 19 0 34 8 15 8 30 11 34 8 3 -4 6 1 6 11 0 9 4
15 9 12 5 -3 12 1 15 10 4 9 9 14 13 11 3 -4 12 1 20 11 9 10 11 11 7 2 -7
-13 -5 -13 9 -1 9 7 14 18 10 24 -3 6 -1 7 6 3 7 -5 20 1 32 15 10 12 19 18
19 13 0 -4 22 14 50 41 27 26 47 52 44 57 -3 4 3 5 13 1 15 -6 16 -4 6 9 -11
12 -9 17 13 26 14 7 22 17 19 22 -3 6 1 13 9 16 9 3 16 12 16 20 0 8 7 14 16
14 8 0 12 5 9 10 -3 6 1 17 9 26 9 9 14 20 11 25 -4 5 1 9 10 9 9 0 14 4 10 9
-3 5 2 17 11 25 9 9 11 16 4 16 -7 0 -4 7 5 16 13 14 14 19 3 25 -10 7 -7 11
10 15 18 5 20 9 10 15 -10 7 -10 9 2 9 13 0 13 1 0 10 -12 8 -12 10 3 16 9 3
17 12 17 20 0 8 4 14 9 14 6 0 8 10 6 22 -3 12 0 27 6 34 6 7 8 18 4 24 -3 5
1 13 9 16 9 3 14 10 11 14 -3 5 -1 11 4 15 6 3 7 13 4 22 -4 10 -2 14 4 10 6
-4 14 0 17 9 4 9 2 13 -5 8 -7 -4 -7 1 1 15 6 12 18 25 26 28 8 3 13 12 10 19
-3 8 -1 14 4 14 5 0 12 9 15 21 4 11 9 19 11 16 6 -6 94 83 94 95 0 4 11 8 24
8 27 0 51 23 43 43 -3 7 10 23 29 36 19 13 34 29 34 36 0 7 7 16 16 19 8 3 12
10 9 16 -3 6 1 13 9 16 9 3 13 10 10 15 -3 5 0 9 5 9 6 0 11 7 11 15 0 8 5 15
10 15 6 0 10 8 10 18 0 11 9 29 20 42 11 12 17 27 14 31 -3 5 2 12 11 15 13 6
14 8 3 15 -9 6 -10 9 -1 9 7 0 10 7 7 15 -4 8 -1 15 6 15 7 0 10 6 7 14 -3 7
0 19 6 25 6 6 8 11 4 11 -4 0 -3 9 3 19 7 14 6 21 -3 24 -9 4 -9 6 1 6 6 1 12
10 12 21 0 11 6 20 13 21 6 0 3 4 -8 9 -11 5 -15 9 -8 9 6 1 10 10 8 21 -2 11
0 22 6 25 13 9 11 129 -3 143 -7 7 -9 12 -5 12 4 0 3 9 -3 19 -7 14 -6 21 2
23 9 3 8 11 -4 31 -13 18 -14 27 -5 30 8 2 6 9 -6 22 -11 11 -15 20 -8 24 6 4
6 12 1 20 -4 8 -6 20 -3 28 3 7 0 13 -6 13 -6 0 -11 7 -11 16 0 8 5 12 11 8 7
-4 7 2 -1 17 -16 28 -22 160 -9 176 7 7 6 14 -1 18 -8 5 -6 14 7 28 10 11 12
17 6 13 -16 -9 -17 10 -2 19 6 4 8 13 5 21 -3 8 -1 14 5 14 6 0 8 4 4 9 -3 5
-1 12 5 16 6 4 8 11 4 16 -3 5 0 17 7 25 6 8 9 17 6 21 -4 3 1 12 11 19 11 9
12 13 4 14 -10 0 -10 5 -1 22 8 15 9 23 1 26 -7 2 -6 14 4 37 15 38 19 131 5
139 -5 3 -7 20 -6 38 2 18 -4 38 -12 47 -11 11 -12 16 -4 19 9 3 7 10 -5 23
-13 15 -14 19 -3 19 10 1 9 4 -4 14 -10 8 -13 16 -7 18 6 2 2 12 -10 26 -11
12 -16 22 -10 22 14 0 -7 42 -27 53 -7 5 -11 12 -8 18 4 5 1 9 -5 9 -6 0 -9 4
-6 9 8 12 -19 33 -30 23 -4 -4 -3 0 4 9 10 14 8 18 -17 29 -18 7 -28 17 -24
26 3 8 -8 21 -26 32 -17 10 -28 22 -24 25 4 4 -2 14 -13 22 -10 8 -15 15 -11
15 5 0 1 7 -7 16 -9 8 -14 20 -11 25 4 5 1 9 -5 9 -6 0 -9 4 -5 9 3 5 1 12 -5
16 -5 3 -10 11 -10 16 0 6 6 7 13 3 8 -5 7 -2 -2 9 -15 19 -17 89 -5 145 4 23
3 32 -6 32 -9 0 -9 4 -2 13 15 18 8 237 -8 247 -7 4 -10 15 -7 24 4 9 -1 20
-11 25 -12 7 -13 10 -3 11 10 0 11 3 2 13 -6 8 -8 17 -4 20 3 4 1 7 -4 7 -6 0
-10 8 -9 17 2 10 -2 23 -8 30 -34 38 -37 43 -25 43 7 0 -1 11 -17 25 -16 14
-25 25 -20 25 4 0 -2 9 -15 21 -13 11 -17 18 -9 14 8 -4 4 2 -9 13 -15 12 -21
24 -16 32 6 10 4 12 -8 7 -9 -3 -16 -3 -15 1 2 9 -112 127 -123 127 -11 0 -24
15 -24 28 -1 7 -7 11 -14 9 -7 -1 -10 2 -7 7 4 5 -6 19 -20 30 -15 12 -24 21
-20 21 3 0 -6 24 -21 53 -15 28 -28 57 -28 62 0 6 -6 16 -13 24 -8 8 -10 17
-5 20 10 7 9 38 -1 69 -4 13 -9 34 -10 45 -6 47 -18 87 -26 87 -5 0 -7 7 -4
15 4 8 1 15 -6 15 -7 0 -10 6 -7 14 3 8 -1 20 -9 26 -8 7 -14 21 -14 31 0 11
-4 19 -9 19 -8 0 -24 37 -22 53 1 4 -4 7 -10 7 -17 0 -36 24 -31 39 3 8 -1 12
-9 9 -19 -7 -49 20 -42 38 3 8 1 14 -5 14 -6 0 -13 -6 -15 -12 -4 -8 -6 -7 -6
3 -1 9 -8 20 -17 23 -8 3 -12 10 -9 16 3 6 -1 7 -9 4 -9 -3 -16 -1 -16 5 0 6
-5 11 -11 11 -6 0 -17 7 -26 15 -8 8 -19 13 -24 10 -5 -4 -9 -1 -9 5 0 6 -4 8
-10 5 -6 -3 -10 0 -10 7 0 10 -3 9 -10 -2 -7 -12 -11 -10 -19 10 -5 14 -10 19
-10 11 -1 -11 -5 -10 -16 5 -9 11 -14 14 -15 6 0 -14 -31 -13 -42 2 -3 5 -28
11 -55 12 -26 1 -66 6 -87 10 -29 5 -37 4 -32 -5 5 -7 -8 -5 -34 5 -22 9 -44
14 -47 10 -3 -3 -12 2 -20 12 -8 9 -12 11 -8 5 3 -7 1 -13 -4 -13 -6 0 -11 5
-11 11 0 5 -4 7 -10 4 -5 -3 -10 -1 -10 5 0 6 -4 8 -10 5 -5 -3 -10 -1 -10 5
0 7 -7 10 -15 6 -9 -3 -15 0 -15 8 0 18 -69 88 -81 80 -5 -3 -8 -2 -7 3 4 13
-150 163 -178 173 -14 6 -22 14 -19 20 3 6 -1 7 -9 4 -9 -3 -16 -1 -16 5 0 6
-9 11 -20 11 -11 0 -20 5 -20 11 0 5 -4 7 -10 4 -5 -3 -10 -1 -10 5 0 6 -4 8
-10 5 -5 -3 -10 0 -10 7 0 10 -3 9 -10 -2 -7 -12 -11 -10 -19 10 -5 14 -10 18
-11 10 0 -13 -1 -13 -10 0 -5 8 -12 11 -16 7 -4 -4 -13 -2 -21 4 -7 6 -13 8
-13 4 0 -4 -7 -1 -17 6 -12 11 -17 11 -20 2 -3 -9 -11 -8 -29 3 -19 13 -27 14
-39 4 -8 -7 -15 -8 -15 -3 0 14 -145 10 -162 -5 -13 -10 -17 -10 -21 0 -4 10
-9 8 -20 -5 -11 -14 -16 -15 -20 -5 -4 11 -6 11 -6 0 -1 -7 -6 -10 -12 -6 -6
3 -15 1 -19 -6 -5 -7 -23 -15 -41 -17 -18 -2 -36 -9 -40 -15 -5 -7 -11 -9 -15
-5 -4 4 -13 2 -21 -4 -18 -15 -188 -15 -206 0 -8 6 -17 8 -21 4 -4 -4 -10 -2
-15 5 -4 6 -22 13 -40 15 -18 2 -36 10 -41 17 -4 7 -12 10 -18 6 -6 -3 -13 0
-15 6 -4 9 -6 9 -6 -1 -1 -11 -5 -10 -17 5 -11 14 -17 16 -21 6 -4 -10 -8 -10
-20 0 -18 15 -163 19 -163 4 0 -6 -5 -5 -12 2 -15 15 -19 15 -45 -3z m105
-190 c31 0 42 4 42 15 0 13 1 13 10 0 5 -8 10 -11 10 -5 0 5 5 4 11 -2 6 -6
18 -9 25 -6 8 3 14 0 14 -7 0 -6 4 -9 9 -5 5 3 12 1 16 -5 4 -6 11 -8 16 -5 5
4 9 -1 9 -9 0 -9 6 -13 14 -10 7 3 16 -2 20 -11 3 -9 10 -14 15 -10 5 3 13 0
17 -6 4 -8 3 -9 -4 -5 -8 5 -10 2 -6 -8 3 -9 10 -14 14 -11 4 3 13 -2 20 -10
7 -8 9 -15 4 -15 -5 0 -3 -4 4 -9 7 -4 14 -17 15 -29 0 -11 5 -18 9 -16 4 3 8
2 9 -3 0 -4 2 -15 4 -23 6 -25 17 -73 21 -100 3 -14 7 -106 9 -205 3 -99 7
-214 10 -255 3 -52 2 -70 -5 -60 -8 12 -10 9 -7 -10 2 -14 8 -33 12 -44 5 -11
4 -21 -3 -25 -8 -4 -3 -16 14 -34 14 -16 20 -27 12 -27 -9 0 -9 -3 2 -10 13
-9 13 -10 0 -10 -9 0 -11 -3 -5 -8 6 -4 15 -20 20 -37 10 -27 14 -30 55 -30
41 0 45 3 55 30 5 17 14 33 20 37 6 5 4 8 -5 8 -13 0 -13 1 0 10 11 7 11 10 2
10 -8 0 -2 11 12 27 17 18 22 30 14 34 -7 4 -8 14 -3 25 4 11 10 30 12 44 3
19 1 22 -7 10 -7 -10 -8 8 -5 60 3 41 7 156 10 255 2 99 6 191 9 205 4 27 15
75 21 100 2 8 4 19 4 23 1 5 5 6 9 3 4 -2 9 5 9 16 1 12 8 25 15 29 7 5 9 9 4
9 -5 0 -3 7 4 15 7 8 16 13 20 10 4 -3 11 2 14 11 4 10 2 13 -6 8 -7 -4 -8 -3
-4 5 4 6 12 9 17 6 5 -4 12 1 15 10 4 9 13 14 20 11 9 -3 14 1 14 12 0 13 2
14 9 4 7 -11 9 -10 15 3 3 9 10 13 16 10 5 -3 10 -2 10 3 0 5 12 10 26 10 15
0 30 6 35 13 7 12 9 11 9 -1 0 -11 12 -15 45 -15 33 0 45 4 46 15 0 9 2 11 5
3 3 -7 11 -10 18 -7 8 3 16 -2 20 -12 5 -13 9 -14 21 -4 12 10 15 10 16 -1 0
-11 2 -11 6 -1 4 10 8 9 19 -5 8 -11 13 -13 14 -5 0 8 8 6 22 -8 22 -20 32
-24 56 -21 6 1 12 -5 12 -14 0 -9 4 -14 9 -11 12 8 33 -19 23 -30 -4 -4 2 -2
13 6 11 8 17 11 13 6 -8 -9 20 -41 36 -41 6 0 11 -9 11 -20 0 -13 6 -20 18
-19 9 1 17 -3 17 -10 0 -6 9 -17 20 -24 12 -7 18 -17 15 -22 -3 -5 4 -15 15
-23 11 -7 17 -17 13 -20 -3 -4 -1 -7 6 -7 7 0 9 -4 6 -10 -3 -5 -1 -10 5 -10
6 0 8 -4 5 -10 -3 -5 -1 -10 6 -10 7 0 9 -3 6 -7 -4 -3 1 -12 11 -20 10 -9 11
-11 2 -7 -12 7 -13 5 -3 -8 7 -8 10 -18 6 -21 -3 -4 -1 -7 6 -7 8 0 11 -7 7
-15 -3 -8 -1 -15 5 -15 5 0 9 -6 8 -12 -3 -26 1 -49 9 -45 4 3 7 -17 7 -45 0
-27 4 -52 9 -55 5 -4 6 -1 1 7 -5 9 -4 11 4 6 9 -6 9 -11 1 -21 -8 -10 -8 -19
0 -35 6 -12 9 -24 6 -27 -3 -3 -1 -14 4 -24 7 -13 6 -22 -6 -33 -14 -15 -11
-20 9 -17 4 1 3 -8 -3 -19 -7 -13 -7 -20 -1 -20 7 0 7 -9 0 -26 -15 -40 12
-76 54 -72 26 3 35 11 57 53 14 28 28 52 33 53 4 2 5 8 1 13 -3 5 1 9 8 9 9 0
9 3 -2 10 -13 8 -12 10 3 10 10 0 16 4 12 9 -3 5 -1 12 5 16 6 4 8 11 4 16 -3
5 0 16 6 24 6 8 9 19 5 25 -3 5 -1 10 4 10 6 0 11 9 11 19 0 11 11 33 25 49
13 16 22 32 19 35 -3 3 0 8 7 13 8 4 10 3 5 -4 -4 -7 -3 -12 3 -12 6 0 14 12
17 26 5 19 9 22 15 12 7 -10 9 -8 10 7 0 12 3 15 6 7 4 -10 8 -9 19 5 11 15
13 15 14 3 0 -12 8 -15 35 -12 19 2 35 8 35 13 0 6 9 5 20 -1 11 -6 20 -7 20
-3 0 4 5 0 11 -10 6 -9 14 -15 20 -12 5 4 9 1 9 -4 0 -6 9 -11 19 -11 10 0 22
-7 25 -16 3 -8 10 -13 15 -9 6 3 15 -4 21 -15 6 -11 15 -18 19 -15 5 2 8 -3 7
-13 0 -10 6 -16 17 -16 9 1 17 -4 17 -11 0 -7 7 -16 16 -19 8 -3 13 -10 10
-15 -3 -5 2 -12 11 -15 15 -6 15 -8 3 -16 -13 -8 -12 -10 3 -10 10 0 15 -4 12
-10 -3 -5 -2 -10 4 -10 5 0 8 -11 7 -25 -2 -14 3 -30 10 -36 18 -15 18 -54 1
-71 -8 -7 -13 -21 -11 -31 1 -10 -4 -17 -13 -17 -13 0 -13 -2 -2 -17 8 -9 9
-14 3 -10 -14 8 -37 -16 -27 -27 4 -4 0 -4 -9 -1 -9 4 -18 0 -22 -10 -3 -9
-10 -14 -15 -11 -5 3 -12 -1 -15 -10 -3 -8 -10 -12 -16 -9 -5 3 -10 -2 -10
-11 0 -10 -3 -15 -6 -12 -8 8 -117 -31 -126 -45 -13 -20 -9 -54 7 -67 9 -7 32
-13 52 -12 25 1 41 -5 54 -19 12 -14 18 -16 22 -7 5 11 7 11 15 0 5 -7 13 -12
18 -11 20 6 74 -13 68 -23 -4 -7 -2 -8 5 -4 6 4 19 2 28 -6 12 -9 15 -9 9 0
-8 13 6 17 18 5 4 -5 12 -9 17 -9 5 -1 11 -3 14 -4 3 -1 10 -4 15 -5 6 -1 11
-3 13 -4 1 -2 13 -5 27 -7 14 -3 27 -9 28 -14 2 -6 8 -8 13 -4 5 3 9 0 9 -6 0
-6 5 -8 10 -5 6 3 10 -1 10 -9 0 -10 6 -13 15 -10 8 4 15 1 15 -7 0 -7 3 -10
6 -7 3 4 14 -1 24 -10 37 -34 55 -47 75 -57 11 -6 20 -16 20 -23 0 -6 10 -19
23 -27 12 -9 20 -20 17 -25 -3 -5 4 -14 15 -20 11 -6 18 -15 15 -21 -4 -5 -1
-9 5 -9 7 0 10 -7 6 -15 -3 -9 0 -15 9 -15 8 0 15 -9 15 -20 0 -11 6 -20 13
-20 9 0 9 -2 -1 -9 -11 -7 -10 -9 3 -15 9 -3 13 -10 10 -16 -3 -5 0 -10 7 -11
11 0 11 -2 0 -6 -10 -4 -9 -8 4 -17 18 -13 29 -80 12 -70 -6 4 -4 -4 2 -17 16
-29 17 -98 2 -126 -9 -16 -9 -22 1 -26 9 -3 9 -7 -2 -20 -10 -13 -11 -17 -1
-17 9 0 8 -6 -4 -19 -10 -11 -15 -24 -12 -30 3 -5 1 -11 -5 -13 -6 -2 -11 -16
-11 -31 0 -15 -5 -27 -10 -27 -6 0 -7 -7 -4 -16 4 -9 1 -23 -5 -30 -18 -22 -3
-104 23 -132 13 -13 23 -31 23 -40 0 -10 7 -16 18 -16 9 1 17 -2 17 -7 0 -5
18 -22 40 -38 21 -15 36 -32 32 -36 -4 -5 -1 -5 6 -1 8 5 30 -10 60 -40 26
-26 40 -44 32 -40 -9 5 -8 2 3 -7 9 -8 17 -19 17 -26 0 -6 5 -11 10 -11 6 0
10 -9 10 -20 0 -11 4 -20 10 -20 5 0 9 -3 9 -7 -1 -5 0 -11 1 -15 1 -5 3 -11
4 -15 1 -5 9 -22 19 -40 10 -18 13 -33 7 -35 -7 -2 -5 -22 4 -56 7 -29 9 -55
5 -58 -5 -3 -7 -16 -5 -30 3 -13 0 -24 -6 -24 -5 0 -8 -6 -5 -14 3 -7 -1 -23
-9 -35 -12 -16 -12 -21 -2 -21 8 -1 6 -6 -6 -15 -15 -11 -16 -15 -5 -16 11 0
11 -2 0 -6 -11 -5 -11 -7 0 -14 11 -7 9 -9 -6 -9 -17 0 -17 -2 -5 -10 13 -8
12 -10 -3 -10 -10 0 -15 -4 -12 -10 3 -5 -1 -10 -9 -10 -10 0 -13 -6 -9 -16 4
-10 -2 -17 -16 -21 -12 -3 -20 -10 -18 -16 4 -13 -62 -80 -87 -90 -10 -4 -20
-16 -23 -27 -3 -11 -9 -20 -14 -20 -19 0 -24 -3 -38 -22 -11 -16 -15 -17 -22
-7 -7 11 -9 10 -9 -5 0 -12 -5 -16 -15 -12 -8 3 -14 0 -12 -6 1 -6 -9 -17 -23
-24 -13 -7 -28 -22 -32 -34 -4 -12 -20 -23 -38 -27 -37 -7 -64 -43 -55 -73 10
-31 40 -42 80 -31 20 5 35 6 35 0 0 -5 11 -4 25 3 18 8 28 8 38 -1 11 -9 17
-8 26 2 10 13 74 15 132 4 37 -7 99 -73 103 -110 1 -4 8 -12 16 -17 12 -8 12
-10 -5 -10 -18 -1 -18 -2 -4 -13 9 -7 14 -17 12 -24 -2 -6 1 -14 7 -18 7 -4 8
-11 2 -18 -17 -22 -20 -66 -5 -71 10 -4 11 -11 4 -25 -6 -10 -7 -21 -4 -25 3
-3 1 -6 -6 -6 -7 0 -9 -4 -6 -10 3 -6 0 -10 -7 -10 -10 0 -9 -3 1 -9 12 -8 12
-12 2 -25 -11 -13 -11 -16 0 -16 9 -1 6 -7 -8 -19 -16 -14 -19 -21 -10 -30 8
-8 6 -11 -9 -11 -16 0 -17 -2 -4 -10 11 -7 11 -10 2 -10 -7 0 -10 -5 -7 -10 3
-6 -1 -13 -9 -16 -9 -3 -13 -10 -10 -15 3 -5 -1 -9 -8 -9 -9 0 -9 -3 2 -10 13
-8 13 -10 -2 -10 -11 0 -15 -6 -11 -21 4 -15 0 -22 -15 -26 -13 -3 -19 -10
-15 -19 3 -9 -1 -14 -12 -14 -15 0 -16 -2 -4 -18 7 -9 10 -14 5 -10 -11 9 -50
-28 -42 -41 3 -5 -3 -12 -14 -16 -11 -3 -25 -15 -30 -25 -6 -11 -17 -17 -24
-14 -9 3 -17 -3 -21 -15 -3 -12 -13 -21 -21 -21 -8 0 -14 -5 -14 -11 0 -6 -7
-9 -15 -5 -8 3 -15 1 -15 -3 0 -5 -20 -17 -45 -28 -25 -10 -45 -21 -45 -25 0
-5 -5 -8 -11 -8 -5 0 -7 6 -4 13 4 6 0 4 -8 -5 -16 -21 -32 -24 -21 -5 6 9 5
9 -7 0 -8 -6 -18 -13 -24 -15 -5 -1 -9 -6 -8 -9 1 -3 -14 -5 -33 -4 -26 1 -39
-4 -50 -19 -10 -14 -14 -16 -14 -6 0 13 -2 13 -10 0 -5 -8 -10 -11 -10 -7 0 4
-9 0 -20 -11 -10 -10 -36 -19 -57 -20 -80 -6 -98 -78 -27 -108 19 -8 39 -12
45 -9 5 4 8 1 7 -7 -2 -7 3 -12 10 -10 8 1 11 -2 8 -7 -3 -5 8 -21 25 -35 17
-15 29 -30 25 -33 -3 -3 3 -13 13 -22 10 -9 22 -31 26 -49 5 -26 3 -36 -12
-47 -17 -14 -17 -14 2 -15 17 0 17 -2 5 -10 -8 -5 -15 -14 -15 -20 0 -6 -7
-15 -15 -20 -13 -9 -13 -10 0 -10 13 0 13 -1 0 -10 -8 -5 -11 -10 -7 -10 5 0
1 -7 -8 -16 -9 -9 -14 -23 -11 -30 3 -8 0 -13 -7 -11 -7 1 -11 -6 -11 -15 1
-10 -1 -17 -5 -16 -3 1 -14 -2 -24 -7 -14 -6 -15 -10 -5 -24 7 -9 8 -12 3 -8
-5 4 -38 -22 -74 -60 -35 -37 -61 -61 -57 -53 4 8 1 7 -8 -4 -8 -10 -20 -15
-27 -10 -8 5 -10 3 -5 -5 5 -8 0 -14 -13 -18 -12 -3 -21 -9 -21 -14 0 -5 -3
-8 -7 -7 -15 4 -53 -14 -53 -24 0 -6 -3 -8 -7 -5 -3 4 -12 2 -19 -4 -8 -6 -21
-9 -29 -5 -9 3 -15 0 -15 -10 0 -8 -5 -12 -11 -9 -5 4 -19 -1 -30 -11 -12 -11
-19 -13 -19 -5 0 7 -5 9 -11 6 -12 -8 -50 -13 -124 -18 -36 -2 -53 2 -62 13
-11 13 -12 12 -13 -5 -1 -19 -1 -19 -11 -2 -6 9 -14 15 -20 12 -5 -4 -9 -1 -9
6 0 7 -3 9 -7 6 -9 -9 -64 44 -57 55 3 4 -2 8 -11 8 -11 0 -15 5 -11 15 3 8 0
15 -7 16 -8 0 -7 2 2 6 11 4 11 7 0 14 -8 4 -12 22 -11 42 3 39 -18 67 -49 67
-20 0 -68 -27 -81 -44 -4 -6 -10 -7 -14 -4 -3 4 -24 -4 -45 -18 -21 -13 -44
-24 -51 -24 -7 0 -18 -10 -23 -22 -6 -13 -20 -24 -31 -26 -12 -2 -24 -12 -27
-23 -3 -10 -13 -22 -23 -26 -20 -8 -49 -30 -72 -55 -9 -9 -19 -15 -24 -12 -4
3 -8 1 -8 -4 0 -6 -11 -13 -25 -16 -15 -4 -25 -14 -25 -24 0 -15 -2 -15 -10
-2 -8 12 -10 12 -10 -5 0 -17 -2 -17 -10 -5 -8 12 -10 12 -10 -5 0 -14 -3 -16
-9 -7 -6 10 -10 10 -21 -2 -7 -9 -16 -13 -21 -10 -5 3 -9 1 -9 -5 0 -6 -7 -8
-15 -5 -9 4 -18 -1 -21 -11 -5 -13 -9 -14 -15 -3 -6 9 -9 9 -9 1 0 -6 -9 -10
-20 -8 -11 2 -20 -1 -20 -7 0 -5 -6 -8 -14 -5 -8 3 -17 1 -20 -6 -3 -8 -5 -6
-5 3 -1 15 -51 22 -51 7 0 -4 -8 -3 -19 2 -10 6 -21 8 -24 4 -4 -3 -9 1 -13
10 -3 9 -12 13 -20 10 -9 -3 -14 1 -14 11 0 10 -7 16 -17 14 -10 -2 -18 3 -19
10 -1 6 -2 17 -3 22 0 6 -8 10 -16 10 -8 0 -15 5 -15 11 0 5 -4 7 -10 4 -5 -3
-10 1 -10 9 0 8 -9 20 -20 26 -11 6 -20 19 -20 28 0 28 -21 42 -60 42 -39 0
-60 -14 -60 -42 0 -9 -9 -22 -20 -28 -11 -6 -20 -17 -20 -25 0 -8 -11 -17 -25
-21 -14 -3 -26 -10 -26 -15 -1 -5 -2 -15 -3 -21 -1 -7 -9 -12 -19 -10 -10 2
-17 -4 -17 -14 0 -10 -5 -14 -14 -11 -8 3 -17 -1 -20 -10 -4 -9 -9 -13 -13
-10 -3 4 -14 2 -24 -4 -11 -5 -19 -6 -19 -2 0 15 -50 8 -51 -7 0 -9 -2 -11 -5
-3 -3 7 -12 9 -20 6 -8 -3 -14 0 -14 5 0 6 -9 9 -20 7 -11 -2 -20 0 -20 6 0 5
-3 8 -7 8 -5 -1 -24 4 -43 12 -19 7 -38 12 -42 11 -5 -1 -8 4 -8 11 0 8 -4 7
-10 -3 -8 -12 -10 -12 -10 5 0 17 -2 17 -10 5 -8 -12 -10 -12 -10 5 0 17 -2
17 -10 5 -8 -13 -10 -13 -10 2 0 10 -10 20 -25 24 -14 3 -25 10 -25 16 0 5 -4
7 -8 4 -5 -3 -15 3 -24 12 -23 25 -52 47 -72 55 -10 4 -20 16 -23 26 -3 11
-15 21 -27 23 -11 2 -25 13 -31 26 -5 12 -17 22 -25 22 -8 0 -31 11 -50 23
-19 13 -41 22 -47 20 -7 -3 -13 -1 -13 4 0 17 -68 46 -94 39 -31 -8 -45 -49
-27 -79 7 -10 9 -17 4 -14 -4 3 -14 -1 -21 -9 -10 -11 -10 -14 0 -14 9 0 9 -3
-2 -10 -8 -5 -10 -10 -5 -10 6 0 1 -7 -9 -15 -11 -8 -16 -15 -11 -15 5 0 -4
-13 -20 -30 -15 -16 -32 -27 -37 -24 -4 3 -8 0 -8 -6 0 -6 -4 -9 -9 -5 -6 3
-14 -3 -20 -12 -10 -17 -10 -17 -11 2 -1 17 -2 18 -13 5 -13 -16 -127 -22
-127 -6 0 4 -8 6 -19 3 -10 -2 -26 0 -35 5 -11 6 -16 5 -16 -3 0 -8 -7 -5 -19
5 -11 10 -25 15 -30 11 -6 -3 -11 1 -11 9 0 10 -6 13 -15 10 -8 -4 -22 -1 -30
6 -8 7 -15 9 -15 5 0 -5 -8 -1 -18 8 -10 10 -22 14 -25 10 -4 -3 -7 -1 -7 6 0
7 -5 9 -10 6 -5 -3 -10 -1 -10 5 0 6 -5 8 -11 5 -6 -4 -13 2 -16 14 -3 11 -9
18 -14 16 -4 -3 -17 2 -27 12 -86 81 -124 113 -134 113 -7 0 -7 4 1 14 9 11 8
15 -6 21 -10 5 -22 7 -26 6 -4 -1 -7 4 -6 11 3 24 -1 33 -26 62 -17 20 -22 32
-14 36 7 5 5 9 -6 14 -9 3 -14 10 -10 15 3 6 -3 14 -12 20 -17 10 -17 10 2 11
19 1 19 1 2 15 -15 11 -17 21 -12 47 4 18 16 40 26 49 10 9 16 19 13 22 -4 3
8 18 25 33 17 14 28 30 25 35 -3 5 0 8 8 7 7 -2 12 3 10 10 -1 8 2 11 7 7 6
-3 26 1 45 9 71 30 53 102 -27 108 -21 1 -45 9 -55 18 -9 8 -24 15 -32 15 -8
0 -18 4 -22 9 -7 10 -29 17 -65 19 -12 0 -21 3 -20 7 1 3 -1 5 -4 5 -3 0 -14
7 -24 15 -11 9 -16 10 -11 3 11 -19 -5 -16 -21 4 -8 10 -12 12 -8 6 3 -7 1
-13 -4 -13 -6 0 -11 3 -11 8 0 4 -20 15 -45 25 -25 11 -45 23 -45 28 0 4 -7 6
-15 3 -8 -4 -15 -1 -15 5 0 6 -6 11 -14 11 -8 0 -18 9 -21 21 -4 12 -12 18
-21 15 -7 -3 -18 3 -24 14 -5 10 -19 22 -30 25 -11 4 -17 11 -14 16 8 13 -31
50 -42 41 -5 -4 -2 1 5 11 12 15 11 17 -4 17 -11 0 -15 5 -12 14 4 9 -2 16
-15 19 -15 4 -19 11 -15 26 4 15 0 21 -11 21 -15 0 -15 2 -2 10 11 7 11 10 2
10 -7 0 -11 4 -8 9 3 5 -1 12 -10 15 -8 3 -12 10 -9 16 3 5 0 10 -7 10 -9 0
-9 3 2 10 13 8 12 10 -4 10 -15 0 -17 3 -9 11 9 9 6 16 -10 30 -14 12 -17 18
-8 19 11 0 11 3 0 16 -10 13 -10 17 2 25 10 6 11 9 1 9 -7 0 -10 5 -7 10 3 6
1 10 -6 10 -7 0 -9 3 -6 6 3 4 2 15 -3 25 -7 13 -6 20 2 26 17 11 17 56 0 66
-10 7 -10 12 -1 23 6 8 9 17 6 21 -4 3 1 12 11 19 16 12 16 13 -3 14 -17 0
-17 2 -5 10 8 5 15 13 16 17 4 37 66 103 103 110 52 10 116 8 130 -5 10 -10
16 -10 27 -1 11 9 21 9 39 1 14 -7 25 -8 25 -3 0 6 15 5 35 0 40 -11 70 0 80
31 9 30 -18 66 -55 73 -18 4 -34 15 -38 27 -4 12 -19 27 -32 34 -14 7 -24 18
-23 24 2 6 -4 9 -12 6 -10 -4 -15 0 -15 12 0 15 -2 16 -9 5 -7 -10 -12 -8 -25
10 -9 13 -19 23 -21 22 -13 -7 -23 -1 -28 17 -3 11 -13 23 -23 27 -25 10 -91
77 -87 90 2 6 -6 13 -18 16 -14 4 -20 11 -16 21 4 10 1 16 -9 16 -8 0 -12 5
-9 10 3 6 -2 10 -12 10 -15 0 -16 2 -3 10 12 8 12 10 -5 11 -13 0 -15 3 -6 6
11 5 11 7 0 14 -12 7 -12 9 0 9 11 0 9 4 -5 15 -11 8 -14 14 -6 15 9 0 7 8 -5
27 -10 15 -12 24 -6 20 9 -6 11 -3 7 7 -3 9 -9 16 -13 16 -4 0 -8 10 -8 23 -1
12 -4 31 -6 42 -2 11 -1 25 3 30 13 18 20 75 9 75 -6 0 -6 7 1 20 6 11 7 20 3
20 -4 0 -1 5 7 10 8 5 16 14 16 20 1 5 3 12 4 15 3 6 5 12 15 43 4 12 11 22
16 22 5 0 9 5 9 11 0 7 8 18 18 26 10 9 11 12 2 7 -8 -4 6 14 32 40 30 30 52
45 60 40 7 -4 10 -4 6 1 -4 4 11 21 32 36 22 16 40 33 40 38 0 5 8 8 18 7 10
0 17 6 17 16 0 9 10 27 23 40 26 28 41 110 23 132 -6 7 -9 21 -5 30 3 9 2 16
-4 16 -5 0 -9 12 -9 27 0 15 -6 29 -12 31 -6 2 -8 8 -5 13 3 6 -2 19 -12 30
-12 13 -13 19 -4 19 10 0 9 4 -1 17 -11 13 -11 17 -2 20 10 4 10 10 1 26 -15
28 -14 97 2 126 6 13 8 21 2 17 -18 -11 -5 57 14 71 13 10 14 13 3 13 -12 0
-12 2 1 10 8 5 11 10 5 10 -5 0 -1 7 9 15 11 8 15 15 9 15 -8 0 -8 7 0 25 7
14 17 25 24 25 7 0 10 7 7 15 -4 8 -1 15 6 15 6 0 9 4 5 9 -3 6 4 15 15 21 11
6 18 15 15 20 -3 5 5 16 19 25 13 9 26 25 29 36 3 12 10 18 16 15 5 -4 16 2
23 12 15 20 89 68 101 64 4 -1 7 5 7 14 0 8 4 12 10 9 5 -3 10 -1 10 5 0 6 5
8 10 5 6 -3 10 -3 10 2 0 4 11 13 25 20 19 8 23 8 18 0 -4 -7 1 -6 10 2 9 7
17 10 17 6 0 -4 7 -2 15 5 8 7 15 9 15 6 0 -4 10 0 22 8 15 11 26 12 39 5 12
-6 20 -5 24 2 4 6 14 8 22 5 9 -4 11 -2 7 6 -5 7 1 9 20 6 14 -3 26 -1 26 4 0
6 6 8 14 5 8 -3 16 2 19 14 4 16 13 19 51 18 64 -3 89 24 70 75 -5 14 -77 42
-96 38 -4 -1 -12 7 -17 17 -6 10 -25 24 -42 30 -21 7 -28 15 -23 23 5 9 1 8
-12 -2 -10 -8 -16 -11 -12 -6 4 4 -4 19 -18 33 -13 13 -22 29 -19 34 4 5 -2 9
-12 9 -15 0 -16 2 -3 10 13 9 13 10 -1 10 -11 0 -15 9 -14 33 0 17 4 37 8 44
4 6 1 14 -5 16 -10 4 -10 8 1 15 7 5 10 15 7 21 -4 6 -2 11 4 11 6 0 8 5 5 11
-4 6 2 19 14 30 13 12 18 26 14 37 -3 9 -3 14 2 10 8 -8 35 15 35 30 0 5 8 16
18 23 16 13 16 12 3 -6 -7 -11 -1 -6 15 10 15 17 31 29 36 27 5 -1 11 5 14 13
4 8 15 15 25 15 10 0 19 5 19 11 0 5 4 8 9 4 6 -3 14 3 20 12 6 10 11 14 11
10 0 -4 9 -3 20 3 11 6 20 7 20 1 0 -5 16 -11 35 -13 27 -3 35 0 35 12 1 12 3
12 14 -3 11 -14 15 -15 19 -5 3 8 6 5 6 -7 1 -15 3 -17 10 -7 6 10 10 7 15
-12 3 -14 11 -26 17 -26 6 0 7 6 3 13 -4 6 -4 9 0 5 4 -3 8 -10 8 -15 0 -4 11
-21 24 -36 13 -16 24 -37 24 -48 0 -10 5 -19 11 -19 5 0 7 -5 4 -10 -4 -6 -1
-17 5 -25 6 -8 9 -19 6 -24 -4 -5 -2 -12 4 -16 6 -4 8 -11 5 -16 -4 -5 2 -9
12 -9 15 0 16 -2 3 -10 -11 -7 -11 -10 -2 -10 7 0 11 -4 8 -9 -4 -5 -3 -11 1
-13 5 -1 19 -25 33 -53 22 -42 31 -50 57 -53 42 -4 69 32 54 72 -7 17 -7 26 0
26 6 0 6 7 -1 20 -6 11 -7 20 -3 19 20 -3 23 2 9 17 -12 11 -13 20 -6 33 5 10
7 21 4 24 -3 3 0 15 6 27 8 16 8 25 0 35 -8 10 -8 15 1 21 8 5 9 3 4 -6 -5 -8
-4 -11 1 -7 5 3 9 28 9 55 0 28 3 48 8 45 7 -4 11 19 8 45 -1 6 3 12 8 12 6 0
8 7 5 15 -4 8 -1 15 4 15 6 0 9 9 7 20 -2 11 0 18 6 15 8 -6 13 8 10 28 0 4 4
7 10 7 5 0 7 5 4 10 -3 6 -1 10 5 10 6 0 8 5 5 10 -3 6 -1 10 6 10 7 0 9 3 6
7 -4 3 2 13 13 20 11 8 18 18 15 23 -3 5 3 15 15 22 11 7 20 18 20 25 0 6 5
15 12 19 7 4 8 3 4 -4 -5 -8 -2 -10 9 -6 8 4 14 14 13 22 -2 9 2 17 8 17 16 0
44 32 36 41 -4 5 0 3 9 -4 14 -10 17 -9 22 9 3 12 10 18 16 14 6 -3 11 1 11
10 0 9 6 15 13 14 23 -3 33 1 55 21 14 14 22 16 22 8 1 -8 7 -5 15 6 11 15 15
16 16 5 0 -10 2 -11 6 -1 4 10 8 10 19 1 11 -9 15 -8 20 5 4 10 13 15 20 12 8
-3 14 0 15 7 0 7 3 6 7 -3 5 -10 21 -15 50 -15z"/>
<path d="M3384 5630 c0 -102 2 -143 3 -92 2 50 2 134 0 185 -1 50 -3 9 -3 -93z"/>
<path d="M3614 5630 c0 -102 2 -143 3 -92 2 50 2 134 0 185 -1 50 -3 9 -3 -93z"/>
<path d="M3473 5023 c3 -5 -5 -8 -16 -9 -26 -1 -50 -7 -57 -14 -3 -3 -23 -17
-45 -32 -22 -14 -89 -72 -149 -128 -62 -59 -127 -110 -153 -122 -34 -15 -81
-22 -197 -28 -172 -10 -193 -14 -256 -45 -86 -44 -125 -112 -140 -250 -6 -47
-14 -123 -20 -170 -15 -132 -42 -171 -211 -298 -197 -147 -231 -254 -144 -448
21 -46 38 -94 39 -106 0 -11 4 -19 9 -16 20 12 3 -19 -18 -33 -14 -9 -22 -20
-19 -25 3 -5 0 -9 -6 -9 -6 0 -8 -5 -5 -10 12 -19 -16 -40 -51 -40 -44 0 -56
-27 -43 -95 12 -62 43 -116 141 -238 43 -54 85 -112 94 -128 28 -55 28 -116
-1 -269 -34 -179 -31 -249 11 -317 35 -56 97 -100 201 -142 270 -110 253 -93
381 -372 68 -148 141 -208 256 -209 46 0 96 13 221 55 96 32 180 55 205 55 25
0 109 -23 205 -55 125 -42 175 -55 221 -55 117 1 187 60 261 219 25 53 56 120
70 150 37 78 87 122 179 160 183 74 209 86 253 115 109 74 130 171 87 400 -14
77 -26 151 -26 166 0 57 33 120 121 230 101 127 124 167 140 239 14 65 1 91
-45 91 -35 0 -62 21 -51 40 3 5 1 10 -5 10 -6 0 -8 5 -5 10 3 6 -2 13 -12 17
-19 7 -33 22 -33 36 0 5 3 6 8 4 4 -3 8 5 8 16 1 12 18 60 39 106 27 61 39
103 43 151 8 116 -36 183 -203 310 -169 128 -186 159 -205 375 -15 171 -34
229 -90 285 -62 63 -118 79 -312 90 -120 6 -167 13 -201 28 -26 12 -91 63
-153 122 -60 56 -127 114 -149 128 -22 15 -42 29 -45 32 -7 7 -31 13 -57 14
-11 1 -19 4 -16 9 2 4 -10 7 -27 7 -17 0 -29 -3 -27 -7z m-148 -213 c-8 -13
16 -13 49 0 17 6 27 6 32 -2 4 -6 3 -8 -3 -5 -6 4 -13 0 -16 -8 -5 -11 -1 -12
20 -4 30 11 34 9 48 -34 9 -28 14 -32 45 -32 31 0 36 4 45 32 14 43 18 45 48
34 21 -8 25 -7 20 4 -3 8 -10 12 -16 8 -6 -3 -7 -1 -3 5 5 8 15 8 32 2 36 -14
57 -13 48 3 -4 6 29 -23 74 -65 50 -46 108 -89 146 -108 57 -28 77 -32 202
-40 186 -13 219 -17 254 -35 72 -37 93 -91 110 -285 19 -220 44 -266 229 -409
73 -57 139 -117 152 -138 38 -61 32 -118 -25 -243 -67 -147 -96 -228 -96 -276
0 -46 14 -64 48 -64 22 0 23 -2 11 -17 -12 -15 -12 -16 5 -10 14 6 17 4 12 -8
-3 -8 -1 -15 5 -15 6 0 5 -9 -2 -22 l-12 -23 23 20 23 20 -12 -23 c-11 -20
-10 -26 6 -39 10 -8 12 -12 6 -8 -8 4 -13 0 -13 -9 0 -8 -29 -52 -64 -99 -34
-46 -70 -106 -80 -132 -20 -60 -21 -153 -2 -248 44 -218 43 -256 -7 -313 -35
-40 -74 -62 -201 -111 -212 -82 -246 -116 -346 -346 -67 -155 -117 -207 -196
-207 -15 0 -100 25 -189 55 -221 75 -249 75 -470 0 -173 -59 -197 -63 -249
-41 -48 20 -77 64 -146 216 -64 143 -93 187 -157 236 -38 29 -62 40 -247 115
-96 39 -152 86 -167 141 -11 43 -9 59 23 233 38 203 20 284 -93 423 -27 34
-49 68 -49 77 0 10 -5 14 -12 10 -7 -4 -5 0 5 8 16 13 17 19 6 39 l-12 23 23
-20 23 -20 -12 23 c-7 13 -8 22 -2 22 6 0 8 7 5 15 -5 12 -2 14 12 8 17 -6 17
-5 5 10 -12 15 -11 17 11 17 77 0 64 98 -48 340 -85 186 -71 230 127 381 132
100 182 158 204 233 8 28 21 118 29 200 27 263 41 274 359 295 175 12 226 33
342 144 80 76 92 86 80 67z"/>
<path d="M3415 4506 c-22 -13 -73 -63 -112 -110 -40 -47 -87 -93 -105 -102
-23 -12 -71 -20 -158 -24 -136 -8 -170 -17 -213 -58 -39 -37 -48 -84 -46 -230
2 -94 -1 -135 -12 -157 -8 -17 -55 -59 -114 -101 -179 -128 -195 -195 -90
-372 37 -64 37 -64 16 -78 -27 -19 -28 -38 -1 -22 16 10 22 10 34 -2 14 -13 7
-15 -56 -16 -56 -2 -75 -6 -85 -20 -26 -35 9 -114 88 -198 77 -83 109 -133
109 -170 0 -18 -14 -77 -31 -131 -66 -209 -37 -273 154 -345 162 -60 169 -67
218 -231 39 -131 60 -166 117 -191 57 -26 95 -20 227 34 130 53 160 53 295 -2
200 -82 277 -51 331 134 32 112 50 156 73 182 12 14 63 40 125 64 57 21 121
51 142 65 79 51 89 129 40 289 -49 155 -46 165 72 295 69 76 97 127 97 176 0
43 -9 48 -96 49 -56 1 -62 3 -48 16 12 12 18 12 34 2 26 -16 26 3 -1 21 -20
14 -19 16 30 111 87 165 68 219 -121 352 -112 79 -114 81 -110 246 2 107 -1
146 -13 175 -37 87 -72 103 -247 113 -99 6 -146 13 -164 24 -13 9 -57 56 -98
104 -41 48 -93 98 -114 110 -53 30 -115 29 -167 -2z m17 -130 c10 -7 15 -16
11 -19 -3 -4 -1 -7 5 -7 6 0 12 -10 14 -21 2 -12 11 -27 21 -33 22 -14 51 3
55 33 2 11 8 21 14 21 6 0 8 3 5 7 -4 3 2 13 14 21 19 13 25 9 102 -71 95 -99
97 -100 290 -114 177 -12 171 -5 177 -217 5 -156 6 -164 32 -203 15 -23 63
-66 110 -99 165 -115 169 -133 78 -294 -60 -104 -75 -146 -68 -191 2 -18 10
-25 33 -27 21 -3 36 -14 53 -39 l23 -35 -44 -47 c-24 -26 -57 -67 -73 -91 -39
-59 -38 -129 4 -269 18 -57 32 -115 32 -128 0 -40 -50 -76 -170 -122 -151 -58
-176 -83 -219 -222 -71 -228 -74 -230 -265 -154 -151 59 -181 59 -332 0 -62
-25 -127 -45 -144 -45 -45 0 -73 37 -99 127 -38 131 -41 139 -70 185 -31 49
-69 71 -211 124 -87 32 -130 69 -130 112 0 16 14 74 31 128 54 171 43 230 -60
346 l-51 56 22 35 c17 25 32 36 53 39 57 6 45 74 -41 227 -57 102 -67 148 -39
188 8 11 58 51 111 89 55 39 108 85 123 108 25 38 26 46 29 200 5 213 2 210
193 221 172 10 181 13 274 111 44 46 82 83 85 83 3 0 13 -6 22 -13z m-847
-1246 c5 0 17 7 27 17 10 9 18 12 18 6 0 -16 -38 -46 -49 -38 -6 3 -16 16 -21
28 -10 20 -10 20 3 5 8 -10 18 -18 22 -18z m1830 0 c4 0 14 8 22 18 13 15 13
14 1 -7 -19 -32 -32 -36 -52 -16 -22 23 -20 42 2 22 10 -10 22 -17 27 -17z"/>
<path d="M3407 4369 c7 -7 15 -10 18 -7 3 3 -2 9 -12 12 -14 6 -15 5 -6 -5z"/>
<path d="M3580 4370 c-9 -6 -10 -10 -3 -10 6 0 15 5 18 10 8 12 4 12 -15 0z"/>
<path d="M3445 4026 c-13 -13 -37 -50 -53 -83 -17 -33 -38 -66 -48 -74 -10 -9
-50 -16 -105 -19 -75 -5 -92 -10 -114 -30 -31 -29 -33 -74 -5 -155 34 -98 30
-108 -49 -155 -132 -77 -140 -117 -45 -231 l37 -44 -34 -3 c-70 -5 -79 -10
-79 -44 0 -27 12 -44 75 -104 41 -39 75 -75 75 -79 0 -4 -20 -44 -45 -89 -25
-46 -45 -95 -45 -110 0 -41 45 -80 123 -105 95 -32 97 -35 97 -146 0 -84 2
-97 24 -121 31 -37 71 -35 156 5 36 17 75 31 88 31 13 0 53 -14 89 -31 87 -40
128 -42 159 -5 22 25 24 36 24 127 l0 100 43 18 c23 10 63 26 89 35 53 20 88
56 88 93 0 13 -21 64 -47 113 l-48 89 78 73 c64 61 77 78 77 104 0 36 -13 44
-71 44 -46 0 -48 8 -13 41 14 13 37 43 51 67 40 67 27 94 -75 161 -93 62 -96
68 -62 166 28 81 26 126 -5 155 -22 20 -39 25 -121 30 -105 7 -98 2 -145 94
-40 77 -70 106 -109 106 -19 0 -40 -9 -55 -24z m55 -161 c22 0 25 5 28 44 l3
45 33 -59 c46 -84 67 -96 175 -104 50 -3 95 -11 100 -16 6 -6 1 -37 -15 -85
-26 -81 -30 -130 -13 -161 5 -11 43 -41 82 -66 67 -43 86 -59 87 -74 0 -4 -25
-37 -55 -74 -88 -107 -88 -145 1 -145 l56 0 -68 -64 c-64 -59 -69 -66 -68
-103 1 -28 14 -62 44 -111 23 -39 40 -79 38 -89 -2 -11 -28 -26 -76 -44 -133
-49 -142 -62 -142 -199 0 -49 -4 -92 -10 -95 -5 -3 -45 10 -89 29 -43 20 -93
36 -111 36 -18 0 -68 -16 -111 -36 -44 -19 -84 -32 -89 -29 -6 3 -10 46 -10
95 0 137 -9 150 -142 199 -48 18 -74 33 -76 44 -2 10 12 44 31 76 46 78 60
122 48 153 -5 14 -37 50 -72 81 l-62 57 57 0 c89 0 90 36 1 144 -30 37 -55 74
-55 81 0 8 34 35 75 60 42 26 82 57 90 68 22 31 18 84 -11 167 -18 53 -22 76
-14 84 6 6 51 14 101 17 108 8 130 20 174 102 l30 56 5 -42 c4 -37 8 -42 30
-42z"/>
<path d="M1001 3574 c0 -11 3 -14 6 -6 3 7 2 16 -1 19 -3 4 -6 -2 -5 -13z"/>
<path d="M2060 3260 c-9 -6 -10 -10 -3 -10 6 0 15 5 18 10 8 12 4 12 -15 0z"/>
<path d="M4927 3259 c7 -7 15 -10 18 -7 3 3 -2 9 -12 12 -14 6 -15 5 -6 -5z"/>
<path d="M1188 2903 c7 -3 16 -2 19 1 4 3 -2 6 -13 5 -11 0 -14 -3 -6 -6z"/>
<path d="M5798 2903 c7 -3 16 -2 19 1 4 3 -2 6 -13 5 -11 0 -14 -3 -6 -6z"/>
<path d="M5240 5836 c0 -2 8 -10 18 -17 15 -13 16 -12 3 4 -13 16 -21 21 -21
13z"/>
<path d="M5575 5140 c3 -5 8 -10 11 -10 2 0 4 5 4 10 0 6 -5 10 -11 10 -5 0
-7 -4 -4 -10z"/>
</g>
</svg>
