<?xml version="1.0" encoding="utf-8"?>
<!-- Generator: Adobe Illustrator 28.1.0, SVG Export Plug-In . SVG Version: 6.00 Build 0)  -->
<svg version="1.1" id="Layer_1" xmlns="http://www.w3.org/2000/svg" xmlns:xlink="http://www.w3.org/1999/xlink" x="0px" y="0px"
	 viewBox="0 0 150 30" style="enable-background:new 0 0 150 30;" xml:space="preserve">
<style type="text/css">
	.st0{display:none;}
	.st1{display:inline;}
	.st2{fill:#FFFFFF;}
	.st3{fill:#BEBEFF;}
	.st4{fill:none;}
</style>
<g id="Layer_2_00000170275064079794258880000011974059823242793102_" class="st0">
	<rect class="st1" width="150" height="30"/>
</g>
<g>
	<g>
		<g>
			<path class="st2" d="M4.9,24.5c-0.5,0-1.1-0.1-1.8-0.1c-0.6-0.1-1.2-0.1-2-0.2l-0.2,0V5.8l0.2,0c0.7,0,1.3-0.1,1.8-0.1
				c0.6-0.1,1.2-0.1,1.7-0.1c1.1,0,2.2,0.1,3.3,0.2l0.2,0l0,0.2c0.1,1.7,0.2,3.2,0.2,4.6c0,0.9,0,1.7-0.1,2.6L9,13.2l0,0.2
				c0.1,1.7,0.2,3.5,0.2,5.3c0,2-0.1,3.7-0.2,5.2l0,0.2l-0.2,0C7.5,24.4,6.1,24.5,4.9,24.5z M2.6,21.4c0.8,0.1,1.5,0.2,2.3,0.2
				c0.9,0,1.7,0,2.4-0.1c0-0.8,0.1-1.6,0.1-2.6c0-1,0-1.8,0-2.7C6.6,16,5.9,16,5.1,16H2.6V21.4z M4.8,13c0.4,0,0.7,0,1.1,0l0.7-0.1
				c0-0.8,0.1-1.5,0.1-2.3c0-0.8,0-1.4,0-2.1C5.9,8.4,5.3,8.4,4.6,8.4c-0.7,0-1.3,0.1-2,0.1l0,4.4H4.8z"/>
			<path d="M4.6,5.8c1.1,0,2.2,0.1,3.3,0.2c0.1,1.6,0.2,3,0.2,4.6c0,0.9,0,1.8-0.1,2.8l0.7,0.1c0.1,1.8,0.2,3.5,0.2,5.3
				c0,1.7,0,3.4-0.2,5.2c-1.3,0.2-2.6,0.3-3.8,0.3c-0.9,0-2.1-0.2-3.8-0.3V6C2.6,5.9,3.8,5.8,4.6,5.8 M2.4,13.2h2.4c0.3,0,0.7,0,1,0
				l0.9-0.1c0-0.8,0.1-1.6,0.1-2.5c0-0.8,0-1.5-0.1-2.3C6.1,8.2,5.4,8.2,4.6,8.2c-0.8,0-1.5,0.1-2.2,0.1L2.4,13.2 M4.9,21.8
				c0.9,0,1.8,0,2.7-0.2c0-1,0.1-1.8,0.1-2.8s0-1.9-0.1-2.9c-0.8,0-1.6-0.1-2.5-0.1H2.4v5.8C3.2,21.7,4,21.8,4.9,21.8 M4.6,5.3
				c-0.5,0-1,0-1.7,0.1c-0.5,0-1.1,0.1-1.8,0.1l-0.5,0V6v17.9v0.5l0.5,0c0.8,0,1.4,0.1,2,0.2c0.7,0.1,1.3,0.1,1.8,0.1
				c1.2,0,2.6-0.1,3.9-0.3l0.4-0.1l0-0.4c0.1-1.6,0.2-3.2,0.2-5.2c0-1.9-0.1-3.6-0.2-5.3l0-0.4l-0.4,0l-0.2,0c0-0.7,0.1-1.5,0.1-2.3
				c0-1.5-0.1-2.9-0.2-4.6l0-0.4L8,5.5C6.9,5.4,5.7,5.3,4.6,5.3L4.6,5.3z M2.9,8.8C3.4,8.7,4,8.7,4.6,8.7c0.6,0,1.2,0,1.7,0
				c0,0.6,0,1.2,0,1.9c0,0.7,0,1.3,0,2.1l-0.4,0c-0.4,0-0.7,0-1,0H2.9L2.9,8.8L2.9,8.8z M2.9,16.2h2.2c0.7,0,1.4,0,2,0
				c0,0.8,0,1.6,0,2.5c0,0.9,0,1.7,0,2.4c-0.7,0.1-1.4,0.1-2.2,0.1c-0.7,0-1.3,0-2-0.1V16.2L2.9,16.2z"/>
		</g>
		<g>
			<rect x="10.8" y="8" class="st3" width="1.7" height="16.2"/>
			<path d="M12.3,8.2V24h-1.2V8.2H12.3 M12.8,7.7h-0.5h-1.2h-0.5v0.5V24v0.5h0.5h1.2h0.5V24V8.2V7.7L12.8,7.7z"/>
		</g>
		<g>
			<path class="st3" d="M20.2,24.2l-3.6-12.7c-0.1,0-0.3,0-0.4,0v12.8h-1.7V8h0.4c0.8,0,1.6,0.1,2.7,0.2l0.2,0l2.4,8.8V8h1.7v16.2
				H20.2z"/>
			<path d="M21.7,8.2V24h-1.2l-3.6-12.7c-0.3,0-0.5-0.1-0.8-0.1V24h-1.2V8.2h0.2c0.8,0,1.7,0.1,2.6,0.2l2.9,10.4V8.2H21.7 M22.2,7.7
				h-0.5h-1.2h-0.5v0.5v7L18,8.3L17.9,8l-0.3,0c-1-0.2-1.9-0.2-2.7-0.2h-0.2h-0.5v0.5V24v0.5h0.5H16h0.5V24V12l3.5,12.1l0.1,0.4h0.4
				h1.2h0.5V24V8.2V7.7L22.2,7.7z"/>
		</g>
		<g>
			<path class="st3" d="M30,24.2l-0.5-3.6h-3.8l-0.5,3.6h-1.8l2.4-16.1l0.2,0c0.6-0.1,1.1-0.2,1.7-0.2c0.6,0,1.1,0.1,1.7,0.2l0.2,0
				l2.4,16.1H30z M29,17.4L28,11.3c-0.1,0-0.3,0-0.5,0c-0.2,0-0.4,0-0.5,0l-0.9,6.1H29z"/>
			<path d="M27.5,8.1c0.5,0,1,0,1.6,0.2L31.5,24h-1.2l-0.5-3.6h-4.3L24.9,24h-1.2l2.3-15.7C26.5,8.2,27,8.1,27.5,8.1 M25.8,17.6h3.4
				l-1-6.5c-0.2-0.1-0.5-0.1-0.7-0.1c-0.2,0-0.5,0-0.7,0.1L25.8,17.6 M27.5,7.6c-0.6,0-1.1,0.1-1.7,0.2l-0.3,0.1l0,0.3l-2.3,15.7
				L23,24.5h0.6h1.2h0.4l0.1-0.4l0.5-3.1h3.4l0.5,3.1l0.1,0.4h0.4h1.2H32L32,23.9L29.6,8.2l0-0.3l-0.3-0.1
				C28.7,7.7,28.2,7.6,27.5,7.6L27.5,7.6z M27.3,11.5c0.1,0,0.2,0,0.3,0c0.1,0,0.2,0,0.3,0l0.8,5.6h-2.3L27.3,11.5L27.3,11.5z"/>
		</g>
		<g>
			<path class="st3" d="M36.6,24.5c-1.2,0-2.3-0.3-3.4-0.8l-0.1-0.1l0-0.2c-0.1-3.8-0.2-8.3-0.2-12.5V8h1.8v3c0,3.3,0,6.8,0.1,9.8
				c0.6,0.2,1.3,0.2,1.8,0.2c0.6,0,1.2,0,1.8-0.2c0.1-2.9,0.1-6.4,0.1-9.8V8h1.8v3c0,2.7-0.1,5.5-0.1,8.3c0,1.4-0.1,2.8-0.1,4.2
				l0,0.2L40,23.7C38.9,24.2,37.8,24.5,36.6,24.5z"/>
			<path d="M40,8.2V11c0,4-0.1,8.4-0.2,12.5c-1.1,0.5-2.2,0.8-3.3,0.8c-1.1,0-2.2-0.2-3.3-0.8c-0.1-4-0.2-8.4-0.2-12.5V8.2h1.3V11
				c0,3.2,0,6.8,0.1,10c0.7,0.2,1.4,0.3,2.1,0.3c0.7,0,1.4,0,2.1-0.3c0.1-3.2,0.1-6.8,0.1-10V8.2H40 M40.5,7.7H40h-1.3h-0.5v0.5V11
				c0,3.3,0,6.7-0.1,9.6c-0.5,0.1-1.1,0.2-1.6,0.2c-0.5,0-1,0-1.6-0.2c-0.1-3-0.1-6.4-0.1-9.6V8.2V7.7h-0.5h-1.3h-0.5v0.5V11
				c0,4.2,0.1,8.6,0.2,12.5l0,0.3l0.3,0.1c1.1,0.5,2.3,0.8,3.5,0.8c1.2,0,2.4-0.3,3.5-0.8l0.3-0.1l0-0.3c0-1.4,0-2.8,0.1-4.2
				c0-2.8,0.1-5.6,0.1-8.3V8.2V7.7L40.5,7.7z"/>
		</g>
		<g>
			<path class="st3" d="M47.4,24.2l-2.1-5.1L45.3,19l-0.8-2.1l0-0.5v-0.2h1.1c0.7,0,1.4,0,2-0.1c0-0.9,0.1-1.7,0.1-2.5
				c0-0.8,0-1.5,0-2.3c-0.7-0.2-1.2-0.2-1.8-0.2c-0.7,0-1.2,0-1.8,0.1l0,13.2h-1.7V8l0.2,0c1-0.2,2-0.3,3.3-0.3
				c1.2,0,2.4,0.1,3.4,0.7l0.1,0.1l0,0.1c0.1,1.7,0.1,3,0.1,4.5c0,1.6,0,3.5-0.1,5.5l0,0.2l-0.2,0C48.5,19,48,19,47.5,19l2.1,5.2
				H47.4z"/>
			<path d="M45.7,8c1,0,2.3,0,3.3,0.7c0.1,1.5,0.1,2.9,0.1,4.5c0,1.8,0,3.6-0.1,5.5c-0.6,0.1-1.2,0.2-1.9,0.2l2,5.1h-1.6l-2.1-5.1h0
				l-0.4-1l-0.4-1.1v-0.5h0.8c0.8,0,1.5,0,2.2-0.1c0-0.9,0.1-1.8,0.1-2.7c0-0.9,0-1.6-0.1-2.5c-0.7-0.2-1.3-0.3-2.1-0.3
				c-0.7,0-1.4,0-2,0.2l0,13.1h-1.2V8.2C43.5,8,44.6,8,45.7,8 M45.7,7.5c-1.4,0-2.4,0.1-3.4,0.3l-0.4,0.1v0.4V24v0.5h0.5h1.2h0.5
				l0-0.5l0-12.7c0.5-0.1,1-0.1,1.5-0.1c0.5,0,1,0.1,1.6,0.2c0,0.7,0,1.4,0,2.1c0,0.7,0,1.5,0,2.3c-0.5,0.1-1.1,0.1-1.8,0.1h-0.8
				h-0.5v0.5v0.5v0.1l0,0.1l0.4,1.1l0.4,1l0.1,0.3h0l1.9,4.8l0.1,0.3h0.3h1.6h0.7l-0.3-0.7l-1.8-4.5c0.4,0,0.8-0.1,1.2-0.2l0.4-0.1
				l0-0.4c0.1-2,0.1-3.9,0.1-5.5c0-1.5-0.1-2.8-0.1-4.5l0-0.3l-0.2-0.1C48.2,7.6,46.9,7.5,45.7,7.5L45.7,7.5z"/>
		</g>
		<g>
			<path class="st3" d="M57.4,24.2l-0.5-3.6H53l-0.5,3.6h-1.8l2.4-16.1l0.2,0c0.6-0.1,1.1-0.2,1.7-0.2c0.6,0,1.1,0.1,1.7,0.2l0.2,0
				l2.4,16.1H57.4z M56.4,17.4l-0.9-6.1c-0.1,0-0.3,0-0.5,0c-0.2,0-0.4,0-0.5,0l-0.9,6.1H56.4z"/>
			<path d="M55,8.1c0.5,0,1,0,1.6,0.2L58.9,24h-1.2l-0.5-3.6h-4.3L52.3,24H51l2.3-15.7C53.9,8.2,54.4,8.1,55,8.1 M53.3,17.6h3.4
				l-1-6.5C55.5,11.1,55.2,11,55,11c-0.2,0-0.5,0-0.7,0.1L53.3,17.6 M55,7.6c-0.6,0-1.1,0.1-1.7,0.2l-0.3,0.1l0,0.3l-2.3,15.7
				l-0.1,0.6H51h1.2h0.4l0.1-0.4l0.5-3.1h3.4l0.5,3.1l0.1,0.4h0.4h1.2h0.6l-0.1-0.6L57.1,8.2l0-0.3l-0.3-0.1
				C56.1,7.7,55.6,7.6,55,7.6L55,7.6z M54.7,11.5c0.1,0,0.2,0,0.3,0c0.1,0,0.2,0,0.3,0l0.8,5.6h-2.3L54.7,11.5L54.7,11.5z"/>
		</g>
		<g>
			<path class="st3" d="M63.9,24.5c-1.1,0-2.1-0.2-3-0.5l-0.2-0.1l0-0.2c-0.1-4.2-0.1-8.6-0.1-12.6V8h1.7v3.2c0,3.4,0,6.8,0.1,9.6
				c0.4,0.1,0.9,0.2,1.5,0.2c0.6,0,1.1-0.1,1.5-0.2c0-0.6,0.1-1.2,0.1-1.9l0-0.2h1.7l0,0.3c0,1.6-0.1,3.1-0.1,4.8l0,0.2L66.9,24
				C66,24.3,65,24.5,63.9,24.5z"/>
			<path d="M62.1,8.2v3c0,3.1,0,6.6,0.1,9.8c0.6,0.2,1.2,0.3,1.7,0.3c0.6,0,1.2-0.1,1.7-0.3c0-0.7,0.1-1.3,0.1-2h1.2
				c0,1.6-0.1,3.1-0.1,4.8c-1,0.3-1.9,0.5-2.9,0.5c-1,0-1.9-0.1-2.9-0.5c-0.1-4.1-0.1-8.5-0.1-12.5v-3H62.1 M62.6,7.7h-0.5h-1.2
				h-0.5v0.5v3c0,3.9,0.1,8.4,0.1,12.6l0,0.3l0.3,0.1c1,0.3,2,0.5,3.1,0.5c1.1,0,2.1-0.2,3.1-0.5l0.3-0.1l0-0.3
				c0.1-1.7,0.1-3.2,0.1-4.8l0-0.5h-0.5h-1.2h-0.5l0,0.5c0,0.6,0,1.1-0.1,1.7c-0.4,0.1-0.8,0.2-1.2,0.2c-0.5,0-0.9-0.1-1.2-0.2
				c0-2.8-0.1-6.2-0.1-9.4v-3V7.7L62.6,7.7z"/>
		</g>
		<g>
			<path class="st2" d="M77.4,24.5c-0.5,0-1.1-0.1-1.8-0.1c-0.6-0.1-1.2-0.1-2-0.2l-0.2,0V5.8l0.2,0c0.7,0,1.3-0.1,1.8-0.1
				c0.6-0.1,1.2-0.1,1.7-0.1c1.1,0,2.2,0.1,3.3,0.2l0.2,0l0,0.2c0.1,1.7,0.2,3.2,0.2,4.6c0,0.9,0,1.7-0.1,2.6l0.7,0.1l0,0.2
				c0.1,1.7,0.2,3.5,0.2,5.3c0,2.1-0.1,3.7-0.2,5.2l0,0.2l-0.2,0C80,24.4,78.7,24.5,77.4,24.5z M75.2,21.4c0.8,0.1,1.5,0.2,2.3,0.2
				c0.9,0,1.7,0,2.4-0.1c0-0.8,0.1-1.6,0.1-2.6c0-1,0-1.8,0-2.7c-0.7,0-1.5-0.1-2.3-0.1h-2.4V21.4z M77.3,13c0.4,0,0.7,0,1.1,0
				l0.7-0.1c0-0.8,0.1-1.5,0.1-2.3c0-0.8,0-1.4,0-2.1c-0.6-0.1-1.2-0.1-1.9-0.1c-0.7,0-1.3,0.1-2,0.1l0,4.4H77.3z"/>
			<path d="M77.1,5.8c1.1,0,2.2,0.1,3.3,0.2c0.1,1.6,0.2,3,0.2,4.6c0,0.9,0,1.8-0.1,2.8l0.7,0.1c0.1,1.8,0.2,3.5,0.2,5.3
				c0,1.7,0,3.4-0.2,5.2c-1.3,0.2-2.6,0.3-3.8,0.3c-0.9,0-2.1-0.2-3.8-0.3V6C75.2,5.9,76.3,5.8,77.1,5.8 M74.9,13.2h2.4
				c0.3,0,0.7,0,1,0l0.9-0.1c0-0.8,0.1-1.6,0.1-2.5c0-0.8,0-1.5-0.1-2.3c-0.7-0.1-1.4-0.1-2.2-0.1c-0.8,0-1.5,0.1-2.2,0.1L74.9,13.2
				 M77.4,21.8c0.9,0,1.8,0,2.7-0.2c0-1,0.1-1.8,0.1-2.8s0-1.9-0.1-2.9c-0.8,0-1.6-0.1-2.5-0.1h-2.7v5.8
				C75.7,21.7,76.5,21.8,77.4,21.8 M77.1,5.3c-0.5,0-1,0-1.7,0.1c-0.5,0-1.1,0.1-1.8,0.1l-0.5,0V6v17.9v0.5l0.5,0
				c0.8,0,1.4,0.1,2,0.2c0.7,0.1,1.3,0.1,1.8,0.1c1.2,0,2.6-0.1,3.9-0.3l0.4-0.1l0-0.4c0.1-1.6,0.2-3.2,0.2-5.2
				c0-1.9-0.1-3.6-0.2-5.3l0-0.4l-0.4,0l-0.2,0c0-0.7,0.1-1.5,0.1-2.3c0-1.5-0.1-2.9-0.2-4.6l0-0.4l-0.4-0.1
				C79.4,5.4,78.2,5.3,77.1,5.3L77.1,5.3z M75.4,8.8c0.5-0.1,1.1-0.1,1.7-0.1c0.6,0,1.2,0,1.7,0c0,0.6,0,1.2,0,1.9
				c0,0.7,0,1.3,0,2.1l-0.4,0c-0.4,0-0.7,0-1,0h-1.9L75.4,8.8L75.4,8.8z M75.4,16.2h2.2c0.7,0,1.4,0,2.1,0c0,0.8,0,1.6,0,2.5
				c0,0.9,0,1.7,0,2.4c-0.7,0.1-1.4,0.1-2.2,0.1c-0.7,0-1.3,0-2-0.1V16.2L75.4,16.2z"/>
		</g>
		<g>
			<path class="st3" d="M86.9,24.5c-1.2,0-2.3-0.1-3.4-0.3l-0.2,0v-16l0.2,0c1.1-0.2,2.3-0.3,3.6-0.3c1,0,2,0.1,2.9,0.3l0.2,0v3.4
				l-0.3-0.1c-0.9-0.3-1.9-0.3-2.6-0.3c-0.8,0-1.5,0.1-2.2,0.2v3.5h3.6v2.6h-3.6v3.5c0.7,0.2,1.4,0.3,2.3,0.3c1,0,1.8-0.1,2.5-0.3
				l0.3-0.1v3.4l-0.2,0C89,24.4,88,24.5,86.9,24.5z"/>
			<path d="M87.1,8c1,0,1.9,0.1,2.9,0.3v2.8c-0.9-0.2-1.9-0.3-2.7-0.3c-0.8,0-1.6,0.1-2.4,0.3V15h3.6v2.1h-3.6v3.9
				c0.9,0.2,1.8,0.3,2.6,0.3c0.8,0,1.8-0.1,2.6-0.3v2.8c-1,0.2-2,0.3-3,0.3c-1.1,0-2.3-0.1-3.4-0.3V8.3C84.7,8.1,85.9,8,87.1,8
				 M87.1,7.5c-1.3,0-2.5,0.1-3.6,0.3l-0.4,0.1v0.4v15.6v0.4l0.4,0.1c1.1,0.2,2.3,0.3,3.5,0.3c1.1,0,2.1-0.1,3.2-0.3l0.4-0.1v-0.4
				v-2.8v-0.7l-0.6,0.2c-0.7,0.2-1.5,0.3-2.4,0.3c-0.8,0-1.5-0.1-2.1-0.2v-3h3.1h0.5v-0.5V15v-0.5h-0.5h-3.1v-3.1
				c0.6-0.1,1.2-0.2,1.9-0.2c0.7,0,1.7,0.1,2.6,0.3l0.6,0.2v-0.7V8.3V7.9l-0.4-0.1C89.1,7.6,88.1,7.5,87.1,7.5L87.1,7.5z"/>
		</g>
		<g>
			<path class="st3" d="M98.1,24.2l-0.5-3.6h-3.8l-0.5,3.6h-1.8l2.4-16.1l0.2,0c0.6-0.1,1.1-0.2,1.7-0.2c0.6,0,1.1,0.1,1.7,0.2
				l0.2,0l2.4,16.1H98.1z M97,17.4l-0.9-6.1c-0.1,0-0.3,0-0.5,0c-0.2,0-0.4,0-0.5,0l-0.9,6.1H97z"/>
			<path d="M95.6,8.1c0.5,0,1,0,1.6,0.2L99.6,24h-1.2l-0.5-3.6h-4.3L93,24h-1.2L94,8.3C94.6,8.2,95.1,8.1,95.6,8.1 M93.9,17.6h3.4
				l-1-6.5c-0.2-0.1-0.5-0.1-0.7-0.1c-0.2,0-0.5,0-0.7,0.1L93.9,17.6 M95.6,7.6c-0.6,0-1.1,0.1-1.7,0.2l-0.3,0.1l0,0.3l-2.3,15.7
				l-0.1,0.6h0.6H93h0.4l0.1-0.4l0.5-3.1h3.4l0.5,3.1l0.1,0.4h0.4h1.2h0.6l-0.1-0.6L97.7,8.2l0-0.3l-0.3-0.1
				C96.8,7.7,96.3,7.6,95.6,7.6L95.6,7.6z M95.3,11.5c0.1,0,0.2,0,0.3,0c0.1,0,0.2,0,0.3,0l0.8,5.6h-2.3L95.3,11.5L95.3,11.5z"/>
		</g>
		<g>
			<path class="st3" d="M102.7,24.2v-13c-0.6,0-1.3,0.1-2.5,0.3l-0.3,0V8.1l0.2,0c1.1-0.2,2.3-0.3,3.5-0.3c1.2,0,2.3,0.1,3.5,0.3
				l0.2,0v3.4l-0.3,0c-1.2-0.1-2-0.2-2.5-0.3v13H102.7z"/>
			<path d="M103.6,8c1.1,0,2.3,0.1,3.4,0.3v2.9c-1.4-0.2-2.2-0.2-2.8-0.3v13H103v-13c-0.6,0-1.4,0.1-2.8,0.3V8.3
				C101.3,8.1,102.4,8,103.6,8 M103.6,7.5c-1.2,0-2.4,0.1-3.5,0.3l-0.4,0.1v0.4v2.9v0.6l0.6-0.1c1-0.1,1.7-0.2,2.3-0.2V24v0.5h0.5
				h1.2h0.5V24V11.5c0.5,0,1.2,0.1,2.3,0.2l0.6,0.1v-0.6V8.3V7.9l-0.4-0.1C106,7.6,104.8,7.5,103.6,7.5L103.6,7.5z"/>
		</g>
		<g>
			<path class="st2" d="M116.8,24.5c-0.5,0-1.1-0.1-1.8-0.1c-0.6-0.1-1.2-0.1-2-0.2l-0.2,0V5.8l0.2,0c0.7,0,1.3-0.1,1.8-0.1
				c0.6-0.1,1.2-0.1,1.7-0.1c1.1,0,2.2,0.1,3.3,0.2l0.2,0l0,0.2c0.1,1.7,0.2,3.2,0.2,4.6c0,0.9,0,1.7-0.1,2.6l0.7,0.1l0,0.2
				c0.1,1.7,0.2,3.5,0.2,5.3c0,2.1-0.1,3.7-0.2,5.2l0,0.2l-0.2,0C119.3,24.4,118,24.5,116.8,24.5z M114.5,21.4
				c0.8,0.1,1.5,0.2,2.3,0.2c0.9,0,1.7,0,2.4-0.1c0-0.8,0.1-1.6,0.1-2.6c0-1,0-1.8,0-2.7c-0.7,0-1.5-0.1-2.3-0.1h-2.4V21.4z
				 M116.6,13c0.4,0,0.7,0,1.1,0l0.7-0.1c0-0.8,0.1-1.5,0.1-2.3c0-0.8,0-1.4,0-2.1c-0.6-0.1-1.2-0.1-1.9-0.1c-0.7,0-1.3,0.1-2,0.1
				l0,4.4H116.6z"/>
			<path d="M116.4,5.8c1.1,0,2.2,0.1,3.3,0.2c0.1,1.6,0.2,3,0.2,4.6c0,0.9,0,1.8-0.1,2.8l0.7,0.1c0.1,1.8,0.2,3.5,0.2,5.3
				c0,1.7,0,3.4-0.2,5.2c-1.3,0.2-2.6,0.3-3.8,0.3c-0.9,0-2.1-0.2-3.8-0.3V6C114.5,5.9,115.6,5.8,116.4,5.8 M114.2,13.2h2.4
				c0.3,0,0.7,0,1,0l0.9-0.1c0-0.8,0.1-1.6,0.1-2.5c0-0.8,0-1.5-0.1-2.3c-0.7-0.1-1.4-0.1-2.2-0.1c-0.8,0-1.5,0.1-2.2,0.1
				L114.2,13.2 M116.8,21.8c0.9,0,1.8,0,2.7-0.2c0-1,0.1-1.8,0.1-2.8s0-1.9-0.1-2.9c-0.8,0-1.6-0.1-2.5-0.1h-2.7v5.8
				C115,21.7,115.8,21.8,116.8,21.8 M116.4,5.3c-0.5,0-1,0-1.7,0.1c-0.5,0-1.1,0.1-1.8,0.1l-0.5,0V6v17.9v0.5l0.5,0
				c0.8,0,1.4,0.1,2,0.2c0.7,0.1,1.3,0.1,1.8,0.1c1.2,0,2.6-0.1,3.9-0.3l0.4-0.1l0-0.4c0.1-1.6,0.2-3.2,0.2-5.2
				c0-1.9-0.1-3.6-0.2-5.3l0-0.4l-0.4,0l-0.2,0c0-0.7,0.1-1.5,0.1-2.3c0-1.5-0.1-2.9-0.2-4.6l0-0.4l-0.4-0.1
				C118.7,5.4,117.5,5.3,116.4,5.3L116.4,5.3z M114.7,8.8c0.5-0.1,1.1-0.1,1.7-0.1c0.6,0,1.2,0,1.7,0c0,0.6,0,1.2,0,1.9
				c0,0.7,0,1.3,0,2.1l-0.4,0c-0.4,0-0.7,0-1,0h-1.9L114.7,8.8L114.7,8.8z M114.7,16.2h2.2c0.7,0,1.4,0,2.1,0c0,0.8,0,1.6,0,2.5
				c0,0.9,0,1.7,0,2.4c-0.7,0.1-1.4,0.1-2.2,0.1c-0.7,0-1.3,0-2-0.1V16.2L114.7,16.2z"/>
		</g>
		<g>
			<path class="st3" d="M128.9,24.2l-0.5-3.6h-3.8l-0.5,3.6h-1.8l2.4-16.1l0.2,0c0.6-0.1,1.1-0.2,1.7-0.2c0.6,0,1.1,0.1,1.7,0.2
				l0.2,0l2.4,16.1H128.9z M127.8,17.4l-0.9-6.1c-0.1,0-0.3,0-0.5,0c-0.2,0-0.4,0-0.5,0l-0.9,6.1H127.8z"/>
			<path d="M126.4,8.1c0.5,0,1,0,1.6,0.2l2.3,15.7h-1.2l-0.5-3.6h-4.3l-0.5,3.6h-1.2l2.3-15.7C125.4,8.2,125.9,8.1,126.4,8.1
				 M124.7,17.6h3.4l-1-6.5c-0.2-0.1-0.5-0.1-0.7-0.1c-0.2,0-0.5,0-0.7,0.1L124.7,17.6 M126.4,7.6c-0.6,0-1.1,0.1-1.7,0.2l-0.3,0.1
				l0,0.3L122,23.9l-0.1,0.6h0.6h1.2h0.4l0.1-0.4l0.5-3.1h3.4l0.5,3.1l0.1,0.4h0.4h1.2h0.6l-0.1-0.6l-2.3-15.7l0-0.3l-0.3-0.1
				C127.6,7.7,127,7.6,126.4,7.6L126.4,7.6z M126.1,11.5c0.1,0,0.2,0,0.3,0c0.1,0,0.2,0,0.3,0l0.8,5.6h-2.3L126.1,11.5L126.1,11.5z"
				/>
		</g>
		<g>
			<path class="st3" d="M137.8,24.2l-3.6-12.7c-0.1,0-0.3,0-0.4,0v12.8H132V8h0.4c0.8,0,1.6,0.1,2.7,0.2l0.2,0l2.4,8.8V8h1.7v16.2
				H137.8z"/>
			<path d="M139.2,8.2V24H138l-3.6-12.7c-0.3,0-0.5-0.1-0.8-0.1V24h-1.2V8.2h0.2c0.8,0,1.7,0.1,2.6,0.2l2.9,10.4V8.2H139.2
				 M139.7,7.7h-0.5H138h-0.5v0.5v7l-1.9-6.9L135.5,8l-0.3,0c-1-0.2-1.9-0.2-2.7-0.2h-0.2h-0.5v0.5V24v0.5h0.5h1.2h0.5V24V12
				l3.5,12.1l0.1,0.4h0.4h1.2h0.5V24V8.2V7.7L139.7,7.7z"/>
		</g>
		<g>
			<path class="st3" d="M147.2,24.2l-2.3-6.3c-0.2,0-0.6,0-0.9,0c-0.3,0-0.7,0-0.9,0v6.4h-1.7V8h1.7v6.4c0.3,0,0.6,0,0.9,0
				c0.3,0,0.6,0,0.9,0l2.2-6.3h2l-2.7,8.1l2.9,8.1H147.2z"/>
			<path d="M148.8,8.2l-2.7,7.9l2.8,7.9h-1.5l-2.3-6.3c-0.3,0-0.7-0.1-1-0.1c-0.5,0-0.9,0-1.2,0V24h-1.2V8.2h1.2v6.3
				c0.3,0,0.7,0,1.2,0c0.4,0,0.8,0,1-0.1l2.2-6.3H148.8 M149.5,7.7h-0.7h-1.4H147l-0.1,0.3l-2.1,6c-0.2,0-0.4,0-0.7,0
				c-0.3,0-0.5,0-0.7,0V8.2V7.7h-0.5h-1.2h-0.5v0.5V24v0.5h0.5h1.2h0.5V24v-5.9c0.2,0,0.5,0,0.7,0c0.2,0,0.5,0,0.7,0l2.2,6l0.1,0.3
				h0.3h1.5h0.7l-0.2-0.7l-2.7-7.7l2.6-7.7L149.5,7.7L149.5,7.7z"/>
		</g>
	</g>
</g>
<rect x="120.6" y="13.5" class="st4" width="19.7" height="6.7"/>
</svg>
